<?xml version="1.0" encoding="UTF-8" standalone="no"?>
<!-- Created with Inkscape (http://www.inkscape.org/) -->

<svg
   width="135.76897mm"
   height="137.58023mm"
   viewBox="0 0 135.76897 137.58023"
   version="1.1"
   id="svg5"
   inkscape:version="1.1.2 (0a00cf5339, 2022-02-04)"
   sodipodi:docname="favicon.svg"
   xmlns:inkscape="http://www.inkscape.org/namespaces/inkscape"
   xmlns:sodipodi="http://sodipodi.sourceforge.net/DTD/sodipodi-0.dtd"
   xmlns="http://www.w3.org/2000/svg"
   xmlns:svg="http://www.w3.org/2000/svg">
  <sodipodi:namedview
     id="namedview7"
     pagecolor="#ffffff"
     bordercolor="#666666"
     borderopacity="1.0"
     inkscape:pageshadow="2"
     inkscape:pageopacity="0.0"
     inkscape:pagecheckerboard="0"
     inkscape:document-units="mm"
     showgrid="false"
     fit-margin-top="0"
     fit-margin-left="0"
     fit-margin-right="0"
     fit-margin-bottom="0"
     inkscape:zoom="1.0633188"
     inkscape:cx="192.32238"
     inkscape:cy="270.37988"
     inkscape:window-width="1920"
     inkscape:window-height="1016"
     inkscape:window-x="1920"
     inkscape:window-y="433"
     inkscape:window-maximized="1"
     inkscape:current-layer="g5464">
    <inkscape:grid
       type="xygrid"
       id="grid824"
       originx="-36.210191"
       originy="-79.709859" />
  </sodipodi:namedview>
  <defs
     id="defs2" />
  <g
     id="g5464"
     transform="translate(-36.210192,-79.709861)">
    <path
       id="path2621"
       style="fill:#cb6520;fill-opacity:1;stroke:none;stroke-width:1.01445;paint-order:markers stroke fill"
       transform="scale(0.26458333)"
       d="M 396.84961,301.26562 A 259.99356,259.9946 0 0 0 136.85742,561.25977 259.99356,259.9946 0 0 0 396.84961,821.25391 259.99356,259.9946 0 0 0 644.56836,640 H 535.87305 a 162.70719,168.03726 0 0 1 -3.75782,6.60156 162.70719,168.03726 0 0 1 -8.49218,12.80469 162.70719,168.03726 0 0 1 -9.60157,11.94141 162.70719,168.03726 0 0 1 -10.62695,10.97461 162.70719,168.03726 0 0 1 -11.5625,9.91601 162.70719,168.03726 0 0 1 -12.39844,8.77149 162.70719,168.03726 0 0 1 -13.1289,7.55273 162.70719,168.03726 0 0 1 -13.74805,6.26953 162.70719,168.03726 0 0 1 -14.25,4.93164 162.70719,168.03726 0 0 1 -14.62891,3.55469 162.70719,168.03726 0 0 1 -14.88476,2.14453 162.70719,168.03726 0 0 1 -15.01367,0.7168 162.70719,168.03726 0 0 1 -15.01172,-0.7168 162.70719,168.03726 0 0 1 -14.88477,-2.14453 162.70719,168.03726 0 0 1 -14.63086,-3.55469 162.70719,168.03726 0 0 1 -14.25,-4.93164 162.70719,168.03726 0 0 1 -13.74804,-6.26953 162.70719,168.03726 0 0 1 -13.12891,-7.55273 162.70719,168.03726 0 0 1 -12.39844,-8.77149 162.70719,168.03726 0 0 1 -11.5625,-9.91601 162.70719,168.03726 0 0 1 -10.62695,-10.97461 162.70719,168.03726 0 0 1 -9.60156,-11.94141 162.70719,168.03726 0 0 1 -8.49219,-12.80469 162.70719,168.03726 0 0 1 -7.3125,-13.55859 162.70719,168.03726 0 0 1 -6.07227,-14.19922 162.70719,168.03726 0 0 1 -4.77539,-14.7168 162.70719,168.03726 0 0 1 -3.4414,-15.10937 162.70719,168.03726 0 0 1 -2.07618,-15.3711 162.70719,168.03726 0 0 1 -0.69335,-15.50586 162.70719,168.03726 0 0 1 0.69335,-15.5039 162.70719,168.03726 0 0 1 2.07618,-15.3711 162.70719,168.03726 0 0 1 3.4414,-15.10937 162.70719,168.03726 0 0 1 4.77539,-14.7168 162.70719,168.03726 0 0 1 6.07227,-14.19922 162.70719,168.03726 0 0 1 7.3125,-13.55859 162.70719,168.03726 0 0 1 8.49219,-12.80469 162.70719,168.03726 0 0 1 9.60156,-11.9414 162.70719,168.03726 0 0 1 10.62695,-10.97461 162.70719,168.03726 0 0 1 11.5625,-9.91602 162.70719,168.03726 0 0 1 12.39844,-8.77148 162.70719,168.03726 0 0 1 13.12891,-7.55274 162.70719,168.03726 0 0 1 13.74804,-6.26953 162.70719,168.03726 0 0 1 14.25,-4.93164 162.70719,168.03726 0 0 1 14.63086,-3.55469 162.70719,168.03726 0 0 1 14.88477,-2.14453 162.70719,168.03726 0 0 1 15.01172,-0.71679 162.70719,168.03726 0 0 1 5.21484,0.0879 162.70719,168.03726 0 0 1 5.20898,0.25781 162.70719,168.03726 0 0 1 5.19922,0.43164 162.70719,168.03726 0 0 1 5.1836,0.60352 162.70719,168.03726 0 0 1 5.16211,0.77343 162.70719,168.03726 0 0 1 5.13476,0.94531 162.70719,168.03726 0 0 1 5.10157,1.11329 162.70719,168.03726 0 0 1 5.0664,1.2832 162.70719,168.03726 0 0 1 5.02344,1.44922 162.70719,168.03726 0 0 1 4.97461,1.61523 162.70719,168.03726 0 0 1 4.92383,1.7793 162.70719,168.03726 0 0 1 4.86523,1.94141 162.70719,168.03726 0 0 1 4.80273,2.10156 162.70719,168.03726 0 0 1 4.73438,2.25976 162.70719,168.03726 0 0 1 4.66211,2.41407 162.70719,168.03726 0 0 1 4.58594,2.5664 162.70719,168.03726 0 0 1 4.50195,2.71875 162.70719,168.03726 0 0 1 4.41602,2.86524 162.70719,168.03726 0 0 1 4.32617,3.01172 162.70719,168.03726 0 0 1 4.22851,3.15234 162.70719,168.03726 0 0 1 4.13086,3.29101 162.70719,168.03726 0 0 1 4.02344,3.42383 162.70719,168.03726 0 0 1 3.91797,3.5586 162.70719,168.03726 0 0 1 3.80469,3.68359 162.70719,168.03726 0 0 1 3.6875,3.80859 162.70719,168.03726 0 0 1 3.56836,3.92969 162.70719,168.03726 0 0 1 3.44336,4.04492 162.70719,168.03726 0 0 1 3.3164,4.15625 162.70719,168.03726 0 0 1 3.1875,4.26563 162.70719,168.03726 0 0 1 3.05078,4.36719 162.70719,168.03726 0 0 1 2.91602,4.46679 162.70719,168.03726 0 0 1 2.77539,4.5625 162.70719,168.03726 0 0 1 2.63086,4.65039 162.70719,168.03726 0 0 1 2.48633,4.73438 162.70719,168.03726 0 0 1 2.33789,4.81445 162.70719,168.03726 0 0 1 2.1875,4.89063 162.70719,168.03726 0 0 1 2.03515,4.95898 A 162.70719,168.03726 0 0 1 546.43359,500 H 649.48633 A 259.99356,259.9946 0 0 0 396.84961,301.26562 Z M 440,590 v 90 h 188.08008 c 0.47618,-0.9008 0.94104,-1.72929 1.41992,-2.6582 1.41846,-2.75147 2.84375,-5.62305 4.25,-8.5918 1.40625,-2.96875 2.79248,-6.03564 4.13281,-9.17773 0.67017,-1.57105 1.32904,-3.16144 1.97266,-4.76758 0.64361,-1.60614 1.27246,-3.22754 1.88281,-4.86328 0.61035,-1.63575 1.20307,-3.28547 1.77344,-4.94532 0.57037,-1.65985 1.1189,-3.32934 1.64258,-5.00781 0.52368,-1.67847 1.02191,-3.36505 1.49218,-5.05664 0.47028,-1.69159 0.91211,-3.38867 1.32227,-5.08789 0.41016,-1.69922 0.78949,-3.40021 1.13281,-5.10156 0.14077,-0.6976 0.24822,-1.3945 0.37696,-2.0918 0.14719,-1.09388 0.2833,-2.1723 0.40234,-3.22266 0.0459,-0.40518 0.0772,-0.78505 0.11914,-1.18359 V 590 Z" />
  </g>
</svg>
